<svg xmlns="http://www.w3.org/2000/svg" width="26" height="26" viewBox="0 0 26 26">
    <g fill="none" fill-rule="evenodd" transform="translate(1 1)">
        <circle cx="17.914" cy="17.143" r="6" fill="#303D46" stroke="#303D46" stroke-linecap="round" stroke-linejoin="round" stroke-width="2"/>
        <path stroke="#FFF" stroke-linecap="round" stroke-linejoin="round" stroke-width="2" d="M20.628 15.429l-2.699 3.978a.683.683 0 0 1-.508.305.662.662 0 0 1-.542-.223l-1.394-1.54"/>
        <path fill="#303D46" d="M.771 1.714h19.714v5.143H.771z"/>
        <path stroke="#303D46" stroke-linecap="round" stroke-linejoin="round" stroke-width="2" d="M8.656 18h-6.9c-.544 0-.985-.456-.985-1.018V2.732c0-.562.441-1.018.985-1.018H19.5c.545 0 .986.456.986 1.018V8.33M5.914 0v5.143M15.342 0v5.143M.77 6.857h19.715"/>
    </g>
</svg>
