<svg xmlns="http://www.w3.org/2000/svg" width="15" height="17" viewBox="0 0 15 17">
    <g fill="none" fill-rule="evenodd" stroke="#FF6900" stroke-linecap="round" stroke-linejoin="round">
        <path d="M4 4.333V3.5M5.699 4.333H4.074c-.515 0-.957.317-1.054.755-.098.439.176.875.654 1.042l1.652.573c.478.167.752.604.654 1.042-.097.438-.54.755-1.054.755h-1.63M4 9.333V8.5"/>
        <path d="M13.995 15.348c0 .36-.343.652-.765.652H1.764C1.342 16 1 15.708 1 15.348V1.652c0-.36.342-.652.764-.652h7.33c.204 0 .4.068.544.191l4.138 3.531a.608.608 0 0 1 .224.461l-.005 10.165z"/>
        <path d="M9 1v3.462c0 .389.379.705.846.705H14M3 11.833h8M7 10.167h4M9 7.667h2M3 13.5h8"/>
    </g>
</svg>
