<svg xmlns="http://www.w3.org/2000/svg" width="20" height="20" viewBox="0 0 20 20">
    <g fill="#425563" fill-rule="nonzero">
        <path d="M4.167 1.042c0 .46.373.833.833.833h2.833c.239 0 .456.139.557.355a2.293 2.293 0 0 0 2.067 1.312h5.376a.833.833 0 1 0 0-1.667h-5.38a.618.618 0 0 1-.557-.355A2.294 2.294 0 0 0 7.833.208H5a.833.833 0 0 0-.833.834z"/>
        <path d="M3.333 11.667c.23 0 .417-.187.417-.417V5.015c0-.23.187-.417.417-.417h2.416c.239.001.455.139.557.354a2.296 2.296 0 0 0 2.067 1.313h6.626c.23 0 .417.187.417.417v4.568c0 .23.187.417.417.417h2.458a.417.417 0 0 0 .408-.5l-.375-1.875a.417.417 0 0 0-.408-.334h-.625a.208.208 0 0 1-.208-.208V5.432a.833.833 0 0 0-.834-.834h-7.88a.617.617 0 0 1-.557-.355 2.294 2.294 0 0 0-2.063-1.311H2.917a.833.833 0 0 0-.834.833V8.75a.208.208 0 0 1-.208.208H1.25a.417.417 0 0 0-.408.334L.47 11.167a.417.417 0 0 0 .408.5h2.455zM15.417 12.5c-1.15 0-2.084.933-2.084 2.083 0 .23-.186.417-.416.417H7.083a.417.417 0 0 1-.416-.417c0-1.15-.933-2.083-2.084-2.083H.417a.417.417 0 0 0-.417.417v6.458c0 .23.187.417.417.417h19.166c.23 0 .417-.187.417-.417l-.008-6.458a.417.417 0 0 0-.416-.417h-4.16z"/>
        <path d="M11.202 10.977c-.005-.04-.01-.077-.024-.068.407-.5.61-1.135.57-1.779a1.54 1.54 0 1 0-3.079 0c-.044.62.145 1.234.531 1.722a.38.38 0 0 1 .013.125c-.932.35-1.45.619-1.675 1.07a3.083 3.083 0 0 0-.24.811.417.417 0 0 0 .41.49h5a.417.417 0 0 0 .41-.49 3.068 3.068 0 0 0-.24-.81c-.224-.452-.743-.721-1.676-1.071z"/>
    </g>
</svg>
