<?xml version="1.0" encoding="UTF-8"?>
<svg width="18px" height="18px" viewBox="0 0 18 18" version="1.1" xmlns="http://www.w3.org/2000/svg" xmlns:xlink="http://www.w3.org/1999/xlink">
    <!-- Generator: Sketch 55.1 (78136) - https://sketchapp.com -->
    <title>Shape</title>
    <desc>Created with Sketch.</desc>
    <g id="Page-1" stroke="none" stroke-width="1" fill="none" fill-rule="evenodd">
        <g id="referrals-1-copy-2" transform="translate(-23.000000, -94.000000)" fill="#425563" fill-rule="nonzero">
            <g id="Group-2" transform="translate(0.000000, 50.000000)">
                <path d="M40.7800204,52.4695463 L32.5300628,44.2195887 C32.2371894,43.9268038 31.7624416,43.9268038 31.4695682,44.2195887 L23.2196106,52.4695463 C23.0051808,52.6840409 22.9410456,53.006571 23.057103,53.286783 C23.1731603,53.566995 23.4465625,53.749725 23.7498579,53.7497897 L24.6873531,53.7497897 C24.7909059,53.7497897 24.8748521,53.8337359 24.8748521,53.9372888 L24.8748521,61.2497512 C24.8748521,61.6639626 25.2106368,61.9997473 25.6248483,61.9997473 L29.9373261,61.9997473 C30.040879,61.9997473 30.1248251,61.9158012 30.1248251,61.8122483 L30.1248251,58.2497666 C30.1248251,57.214238 30.9642869,56.3747762 31.9998155,56.3747762 C33.0353441,56.3747762 33.8748059,57.214238 33.8748059,58.2497666 L33.8748059,61.8122483 C33.8748059,61.9158012 33.958752,61.9997473 34.0623049,61.9997473 L38.3747827,61.9997473 C38.7889942,61.9997473 39.1247789,61.6639626 39.1247789,61.2497512 L39.1247789,53.9372888 C39.1247789,53.8337359 39.2087251,53.7497897 39.3122779,53.7497897 L40.2497731,53.7497897 C40.5530685,53.749725 40.8264707,53.566995 40.942528,53.286783 C41.0585854,53.006571 40.9944502,52.6840409 40.7800204,52.4695463 Z M31.9998155,52.9997936 C30.9642869,52.9997936 30.1248251,52.1603318 30.1248251,51.1248032 C30.1248251,50.0892746 30.9642869,49.2498129 31.9998155,49.2498129 C33.0353441,49.2498129 33.8748059,50.0892746 33.8748059,51.1248032 C33.8748059,51.6220816 33.6772628,52.0989927 33.3256339,52.4506216 C32.974005,52.8022505 32.4970939,52.9997936 31.9998155,52.9997936 L31.9998155,52.9997936 Z" id="Shape"></path>
            </g>
        </g>
    </g>
</svg>