<?xml version="1.0" encoding="UTF-8"?>
<svg width="21px" height="21px" viewBox="0 0 21 21" version="1.1" xmlns="http://www.w3.org/2000/svg" xmlns:xlink="http://www.w3.org/1999/xlink">
    <!-- Generator: Sketch 54.1 (76490) - https://sketchapp.com -->
    <title>multiple-actions-add copy</title>
    <desc>Created with Sketch.</desc>
    <g id="Page-1" stroke="none" stroke-width="1" fill="none" fill-rule="evenodd">
        <g id="multiple-actions-add-copy" fill="#425563" fill-rule="nonzero">
            <circle id="Oval" cx="12.6875" cy="3.0625" r="2.625"></circle>
            <path d="M10.441375,9.853375 C10.468716,9.91731237 10.5248274,9.96444164 10.5925259,9.98033005 C10.6602243,9.99621845 10.7314441,9.97897304 10.784375,9.933875 C12.0452084,8.85249612 13.6514518,8.25810845 15.3125,8.25825 C15.3708333,8.25825 15.4291667,8.25825 15.4875,8.25825 C15.5757,8.26297934 15.6580902,8.21420162 15.6963617,8.13459695 C15.7346331,8.05499229 15.7212756,7.96018203 15.6625,7.89425 C14.8756377,7.0089005 13.7355513,6.51969532 12.5517369,6.55943766 C11.3679225,6.59918 10.2632127,7.1637462 9.5375,8.099875 C9.47548372,8.18055865 9.47729711,8.29335162 9.541875,8.372 C9.9102605,8.82076496 10.2131118,9.31952691 10.441375,9.853375 Z" id="Path"></path>
            <path d="M0.4375,15.75 L2.02125,15.75 C2.1348998,15.7500529 2.22957843,15.8371269 2.239125,15.950375 L2.625,20.59925 C2.64414829,20.8264172 2.83452868,21.0008056 3.0625,21 L6.5625,21 C6.79047132,21.0008056 6.98085171,20.8264172 7,20.59925 L7.387625,15.950375 C7.39711137,15.8377928 7.49077287,15.7509568 7.60375,15.75 L8.103375,15.75 C8.16358635,15.7498676 8.22108079,15.7249227 8.26231146,15.6810427 C8.30354212,15.6371626 8.32486284,15.578228 8.32125,15.518125 C8.32125,15.430625 8.3125,15.343125 8.3125,15.255625 C8.31109066,13.8797602 8.71792394,12.5344088 9.4815,11.389875 C9.51425482,11.340426 9.52561638,11.2798311 9.513,11.221875 C8.98619373,8.82287251 6.73733796,7.20552354 4.29539474,7.46943848 C1.85345152,7.73335343 0.00208048844,9.79383766 0,12.25 L0,15.3125 C2.95904766e-17,15.5541246 0.195875422,15.75 0.4375,15.75 Z" id="Path"></path>
            <circle id="Oval" cx="4.8125" cy="3.0625" r="3.0625"></circle>
            <path d="M9.625,15.3125 C9.625,18.4536195 12.1713805,21 15.3125,21 C18.4536195,21 21,18.4536195 21,15.3125 C21,12.1713805 18.4536195,9.625 15.3125,9.625 C12.1729795,9.62885691 9.62885691,12.1729795 9.625,15.3125 Z M12.25,14.4375 L14.21875,14.4375 C14.3395623,14.4375 14.4375,14.3395623 14.4375,14.21875 L14.4375,12.25 C14.4375,11.7667508 14.8292508,11.375 15.3125,11.375 C15.7957492,11.375 16.1875,11.7667508 16.1875,12.25 L16.1875,14.21875 C16.1875,14.3395623 16.2854377,14.4375 16.40625,14.4375 L18.375,14.4375 C18.8582492,14.4375 19.25,14.8292508 19.25,15.3125 C19.25,15.7957492 18.8582492,16.1875 18.375,16.1875 L16.40625,16.1875 C16.2854377,16.1875 16.1875,16.2854377 16.1875,16.40625 L16.1875,18.375 C16.1875,18.8582492 15.7957492,19.25 15.3125,19.25 C14.8292508,19.25 14.4375,18.8582492 14.4375,18.375 L14.4375,16.40625 C14.4375,16.2854377 14.3395623,16.1875 14.21875,16.1875 L12.25,16.1875 C11.7667508,16.1875 11.375,15.7957492 11.375,15.3125 C11.375,14.8292508 11.7667508,14.4375 12.25,14.4375 Z" id="Shape"></path>
            <circle id="Oval" cx="12.6875" cy="3.0625" r="2.625"></circle>
            <path d="M10.441375,9.853375 C10.468716,9.91731237 10.5248274,9.96444164 10.5925259,9.98033005 C10.6602243,9.99621845 10.7314441,9.97897304 10.784375,9.933875 C12.0452084,8.85249612 13.6514518,8.25810845 15.3125,8.25825 C15.3708333,8.25825 15.4291667,8.25825 15.4875,8.25825 C15.5757,8.26297934 15.6580902,8.21420162 15.6963617,8.13459695 C15.7346331,8.05499229 15.7212756,7.96018203 15.6625,7.89425 C14.8756377,7.0089005 13.7355513,6.51969532 12.5517369,6.55943766 C11.3679225,6.59918 10.2632127,7.1637462 9.5375,8.099875 C9.47548372,8.18055865 9.47729711,8.29335162 9.541875,8.372 C9.9102605,8.82076496 10.2131118,9.31952691 10.441375,9.853375 Z" id="Path"></path>
            <path d="M0.4375,15.75 L2.02125,15.75 C2.1348998,15.7500529 2.22957843,15.8371269 2.239125,15.950375 L2.625,20.59925 C2.64414829,20.8264172 2.83452868,21.0008056 3.0625,21 L6.5625,21 C6.79047132,21.0008056 6.98085171,20.8264172 7,20.59925 L7.387625,15.950375 C7.39711137,15.8377928 7.49077287,15.7509568 7.60375,15.75 L8.103375,15.75 C8.16358635,15.7498676 8.22108079,15.7249227 8.26231146,15.6810427 C8.30354212,15.6371626 8.32486284,15.578228 8.32125,15.518125 C8.32125,15.430625 8.3125,15.343125 8.3125,15.255625 C8.31109066,13.8797602 8.71792394,12.5344088 9.4815,11.389875 C9.51425482,11.340426 9.52561638,11.2798311 9.513,11.221875 C8.98619373,8.82287251 6.73733796,7.20552354 4.29539474,7.46943848 C1.85345152,7.73335343 0.00208048844,9.79383766 0,12.25 L0,15.3125 C2.95904766e-17,15.5541246 0.195875422,15.75 0.4375,15.75 Z" id="Path"></path>
            <circle id="Oval" cx="4.8125" cy="3.0625" r="3.0625"></circle>
            <path d="M9.625,15.3125 C9.625,18.4536195 12.1713805,21 15.3125,21 C18.4536195,21 21,18.4536195 21,15.3125 C21,12.1713805 18.4536195,9.625 15.3125,9.625 C12.1729795,9.62885691 9.62885691,12.1729795 9.625,15.3125 Z M12.25,14.4375 L14.21875,14.4375 C14.3395623,14.4375 14.4375,14.3395623 14.4375,14.21875 L14.4375,12.25 C14.4375,11.7667508 14.8292508,11.375 15.3125,11.375 C15.7957492,11.375 16.1875,11.7667508 16.1875,12.25 L16.1875,14.21875 C16.1875,14.3395623 16.2854377,14.4375 16.40625,14.4375 L18.375,14.4375 C18.8582492,14.4375 19.25,14.8292508 19.25,15.3125 C19.25,15.7957492 18.8582492,16.1875 18.375,16.1875 L16.40625,16.1875 C16.2854377,16.1875 16.1875,16.2854377 16.1875,16.40625 L16.1875,18.375 C16.1875,18.8582492 15.7957492,19.25 15.3125,19.25 C14.8292508,19.25 14.4375,18.8582492 14.4375,18.375 L14.4375,16.40625 C14.4375,16.2854377 14.3395623,16.1875 14.21875,16.1875 L12.25,16.1875 C11.7667508,16.1875 11.375,15.7957492 11.375,15.3125 C11.375,14.8292508 11.7667508,14.4375 12.25,14.4375 Z" id="Shape"></path>
        </g>
    </g>
</svg>