<?xml version="1.0" standalone="no"?>
<!DOCTYPE svg PUBLIC "-//W3C//DTD SVG 20010904//EN"
 "http://www.w3.org/TR/2001/REC-SVG-20010904/DTD/svg10.dtd">
<svg version="1.0" xmlns="http://www.w3.org/2000/svg"
 width="1024.000000pt" height="1024.000000pt" viewBox="0 0 1024.000000 1024.000000"
 preserveAspectRatio="xMidYMid meet">
<metadata>
Created by potrace 1.11, written by Peter Selinger 2001-2013
</metadata>
<g transform="translate(0.000000,1024.000000) scale(0.100000,-0.100000)"
fill="#000000" stroke="none">
<path d="M5013 8971 c-70 -44 -68 -25 -71 -536 -2 -298 0 -472 7 -495 35 -119
199 -134 255 -25 20 39 21 55 21 495 0 419 -1 459 -18 495 -24 52 -59 77 -116
82 -34 3 -54 -1 -78 -16z"/>
<path d="M4071 8842 c-43 -23 -71 -74 -71 -127 0 -66 216 -874 246 -920 18
-27 71 -55 106 -55 71 1 148 71 148 134 0 42 -221 889 -242 929 -28 53 -124
73 -187 39z"/>
<path d="M5934 8827 c-34 -31 -40 -46 -90 -232 -30 -110 -84 -316 -121 -458
l-65 -258 17 -44 c19 -52 60 -85 113 -92 51 -6 120 31 143 77 10 19 68 228
129 463 115 443 118 460 83 515 -23 37 -73 62 -126 62 -40 0 -53 -5 -83 -33z"/>
<path d="M3195 8471 c-76 -47 -94 -114 -53 -203 24 -50 269 -489 384 -685 60
-102 86 -123 156 -123 88 0 144 63 136 154 -4 44 -33 102 -217 426 -118 206
-223 386 -235 398 -48 53 -117 67 -171 33z"/>
<path d="M6834 8471 c-17 -10 -40 -32 -51 -48 -56 -80 -432 -763 -438 -796
-10 -54 17 -120 59 -147 63 -38 153 -21 194 37 53 76 441 783 447 813 4 26 0
47 -17 79 -39 75 -127 103 -194 62z"/>
<path d="M2443 7881 c-43 -20 -65 -51 -77 -108 -14 -65 14 -101 350 -440 280
-283 324 -323 356 -329 52 -9 83 1 124 39 41 38 55 84 40 142 -8 34 -57 88
-305 344 -163 167 -312 317 -332 333 -48 38 -101 45 -156 19z"/>
<path d="M7595 7880 c-43 -21 -603 -586 -649 -655 -84 -123 61 -282 185 -203
20 13 174 164 343 337 324 332 336 348 322 424 -8 45 -41 86 -82 103 -45 19
-72 18 -119 -6z"/>
<path d="M5020 7304 c-25 -23 -44 -51 -51 -76 -6 -25 -9 -137 -7 -301 3 -241
5 -265 23 -296 32 -55 69 -76 130 -76 58 0 91 18 129 69 20 26 21 43 24 308 3
270 2 281 -19 325 -28 58 -69 83 -136 83 -47 0 -58 -4 -93 -36z"/>
<path d="M1859 7114 c-68 -44 -95 -146 -55 -207 18 -26 262 -178 641 -397 184
-107 226 -118 284 -78 49 33 75 88 67 141 -12 78 2 68 -556 395 -285 167 -325
182 -381 146z"/>
<path d="M8085 7062 c-261 -147 -655 -385 -679 -409 -49 -49 -53 -122 -11
-187 37 -56 115 -72 183 -37 117 60 741 436 763 460 79 86 13 241 -101 241
-25 0 -70 -19 -155 -68z"/>
<path d="M4012 7040 c-74 -45 -93 -137 -46 -226 80 -153 233 -411 257 -435 43
-44 96 -56 152 -35 75 29 112 97 94 176 -9 38 -216 419 -262 482 -42 57 -134
75 -195 38z"/>
<path d="M6070 7043 c-36 -25 -39 -29 -161 -241 -132 -231 -148 -265 -149
-315 0 -112 104 -183 203 -139 54 24 65 39 220 317 99 175 107 193 107 243 0
67 -22 107 -72 133 -46 24 -115 25 -148 2z"/>
<path d="M3305 6290 c-95 -21 -147 -123 -107 -212 17 -40 33 -53 158 -130 192
-118 334 -197 371 -204 100 -20 191 91 163 196 -6 22 -20 49 -32 60 -19 17
-380 236 -447 270 -40 20 -74 27 -106 20z"/>
<path d="M6755 6234 c-200 -112 -365 -215 -385 -241 -66 -84 -34 -201 65 -239
39 -14 52 -15 86 -5 55 16 434 239 481 282 97 91 31 259 -102 259 -36 0 -65
-11 -145 -56z"/>
<path d="M1493 6210 c-86 -52 -96 -176 -20 -235 24 -17 146 -55 454 -139 233
-64 438 -116 456 -116 19 0 49 10 68 23 94 63 88 200 -12 249 -52 25 -836 238
-878 238 -20 0 -50 -9 -68 -20z"/>
<path d="M8145 6116 c-220 -61 -414 -120 -431 -130 -88 -52 -88 -193 -1 -246
18 -11 47 -20 66 -20 53 0 856 220 902 247 37 22 59 64 59 113 0 50 -19 89
-60 124 -51 42 -92 36 -535 -88z"/>
<path d="M1385 5256 c-54 -23 -85 -70 -85 -128 0 -62 23 -104 72 -129 35 -18
64 -19 488 -19 425 0 453 1 488 19 53 27 76 74 70 140 -6 58 -32 95 -85 117
-46 20 -903 20 -948 0z"/>
<path d="M7821 5252 c-48 -24 -73 -62 -78 -119 -4 -39 0 -55 19 -83 48 -71 41
-70 541 -70 491 0 495 0 536 59 52 72 26 176 -51 211 -41 18 -69 20 -488 20
-404 0 -448 -2 -479 -18z"/>
<path d="M3022 5236 c-75 -25 -112 -73 -112 -149 0 -49 27 -96 73 -131 27 -20
43 -21 297 -24 251 -3 272 -2 314 17 61 26 86 69 86 143 0 46 -5 62 -26 88
-53 63 -64 65 -339 67 -191 2 -260 -1 -293 -11z"/>
<path d="M6673 5241 c-46 -12 -81 -37 -103 -74 -41 -66 -15 -172 52 -212 31
-19 51 -20 313 -20 270 0 281 1 315 22 80 50 98 164 36 231 -49 55 -62 57
-331 59 -137 1 -265 -2 -282 -6z"/>
<path d="M2220 4495 c-69 -20 -255 -72 -415 -116 -159 -44 -304 -89 -321 -100
-92 -57 -80 -200 22 -249 51 -25 24 -30 463 90 462 127 457 125 485 144 83 54
85 180 4 238 -47 33 -99 32 -238 -7z"/>
<path d="M7725 4511 c-22 -10 -48 -32 -58 -50 -37 -63 -18 -158 36 -194 27
-17 235 -79 612 -180 316 -85 292 -81 344 -55 109 56 108 207 -1 258 -47 22
-841 240 -873 240 -11 0 -38 -9 -60 -19z"/>
<path d="M3645 4395 c-130 -67 -399 -232 -429 -261 -29 -30 -40 -71 -31 -116
19 -86 68 -128 149 -128 43 0 66 10 205 91 335 196 361 217 361 291 0 42 -37
116 -70 140 -52 37 -88 34 -185 -17z"/>
<path d="M6434 4426 c-106 -47 -133 -181 -51 -253 36 -31 310 -199 417 -254
111 -58 179 -42 228 52 26 49 25 110 -3 153 -8 12 -86 66 -173 118 -326 198
-357 211 -418 184z"/>
<path d="M2585 3819 c-22 -12 -94 -53 -160 -92 -409 -240 -563 -333 -589 -356
-59 -54 -67 -118 -24 -189 38 -61 115 -79 186 -43 47 24 638 372 710 418 116
74 121 211 10 269 -38 20 -87 17 -133 -7z"/>
<path d="M4237 3811 c-32 -29 -140 -205 -246 -402 -43 -80 -51 -104 -51 -148
0 -46 4 -56 39 -94 39 -42 40 -42 109 -42 55 0 74 4 91 19 21 19 183 293 260
440 47 90 49 112 20 172 -27 57 -72 84 -137 84 -43 0 -57 -5 -85 -29z"/>
<path d="M5832 3820 c-74 -45 -92 -131 -46 -223 36 -70 202 -364 230 -406 34
-50 71 -71 129 -71 74 0 125 39 146 112 12 45 -3 93 -68 212 -127 230 -207
357 -239 376 -41 26 -109 26 -152 0z"/>
<path d="M7440 3822 c-63 -35 -95 -147 -57 -205 13 -21 227 -152 693 -426 137
-80 175 -88 235 -48 69 46 85 127 41 199 -21 33 -142 109 -621 390 -200 117
-225 125 -291 90z"/>
<path d="M5065 3615 c-47 -17 -81 -55 -96 -108 -6 -23 -9 -139 -7 -295 3 -236
5 -260 24 -297 57 -111 213 -106 265 9 17 37 19 69 19 306 0 237 -2 269 -19
306 -33 74 -110 106 -186 79z"/>
<path d="M3042 3234 c-33 -17 -622 -613 -654 -661 -60 -93 6 -223 115 -223 21
0 51 7 66 15 36 18 637 630 657 668 62 118 -68 260 -184 201z"/>
<path d="M7002 3233 c-75 -37 -104 -132 -61 -203 28 -46 617 -648 651 -666 81
-42 187 11 204 103 14 76 3 90 -333 433 -187 190 -331 329 -350 337 -42 17
-70 16 -111 -4z"/>
<path d="M3610 2776 c-27 -15 -106 -147 -344 -573 -160 -286 -168 -310 -126
-378 37 -59 127 -83 190 -50 33 17 46 37 308 501 168 296 182 325 182 370 0
61 -25 105 -73 127 -42 20 -103 21 -137 3z"/>
<path d="M6404 2770 c-41 -27 -68 -88 -61 -139 3 -25 50 -121 130 -263 340
-606 341 -608 422 -608 101 0 167 78 146 171 -10 46 -424 779 -460 815 -48 49
-123 59 -177 24z"/>
<path d="M4316 2500 c-30 -9 -72 -43 -86 -71 -20 -36 -230 -861 -230 -902 0
-60 32 -106 92 -131 45 -18 48 -19 92 -2 25 10 55 30 66 46 11 16 50 142 89
286 130 487 163 626 158 661 -8 48 -41 88 -87 107 -45 18 -52 18 -94 6z"/>
<path d="M5766 2500 c-42 -13 -85 -58 -97 -103 -11 -42 -17 -17 117 -527 105
-397 109 -412 142 -443 62 -59 144 -56 201 8 51 58 50 74 -28 371 -177 678
-169 655 -234 685 -46 20 -58 21 -101 9z"/>
<path d="M5021 2393 c-19 -10 -44 -31 -55 -46 -20 -28 -21 -41 -24 -490 -2
-298 1 -475 7 -497 17 -58 61 -93 123 -97 65 -5 106 17 134 73 18 37 19 65 19
499 0 502 2 488 -58 544 -35 32 -101 38 -146 14z"/>
</g>
</svg>
