<?xml version="1.0" encoding="UTF-8"?>
<svg width="19px" height="19px" viewBox="0 0 19 19" version="1.1" xmlns="http://www.w3.org/2000/svg" xmlns:xlink="http://www.w3.org/1999/xlink">
    <!-- Generator: Sketch 54.1 (76490) - https://sketchapp.com -->
    <title>Shape</title>
    <desc>Created with Sketch.</desc>
    <g id="Page-1" stroke="none" stroke-width="1" fill="none" fill-rule="evenodd">
        <path d="M17.7499445,7.72911024 L16.7476962,7.3736525 C16.4574656,7.27047913 16.224585,7.04909339 16.106865,6.76445235 C15.9891449,6.47981131 15.9976239,6.15860557 16.1301972,5.88057165 L16.1301972,5.88057165 L16.5861965,4.92028159 C16.9270232,4.20172207 16.7791089,3.34646222 16.2167519,2.7841053 C15.654395,2.22174837 14.7991351,2.07383404 14.0805756,2.41466076 L13.1202856,2.87145167 C12.8420922,3.0034238 12.5210207,3.01140483 12.2366139,2.89341752 C11.9522072,2.7754302 11.7310733,2.54251306 11.6279964,2.25236937 L11.271747,1.2509127 C11.0046541,0.501805426 10.2952988,0.00162907162 9.49999993,0.00162907162 C8.70470105,0.00162907162 7.99534575,0.501805426 7.72825289,1.2509127 L7.37200348,2.25316103 C7.26876139,2.54316238 7.04755899,2.77589215 6.76317162,2.89372055 C6.47878425,3.01154895 6.15780421,3.00345816 5.8797143,2.87145167 L4.91942424,2.41466076 C4.20086472,2.07383404 3.34560487,2.22174837 2.78324795,2.7841053 C2.22089102,3.34646222 2.07297669,4.20172207 2.41380341,4.92028159 L2.86980265,5.88057165 C3.00211667,6.15863872 3.01046335,6.47973761 2.89277447,6.76430328 C2.77508559,7.04886895 2.54237416,7.27027254 2.25230368,7.3736525 L1.25005535,7.7299019 C0.500755108,7.99659537 0.000315434841,8.70590649 0.000315434841,9.50125312 C0.000315434841,10.2965997 0.500755108,11.0059109 1.25005535,11.2726043 L2.25230368,11.6288537 C2.54232256,11.7320547 2.77503387,11.9533077 2.89273451,12.2377509 C3.01043514,12.5221941 3.00210247,12.8431894 2.86980265,13.1211429 L2.41380341,14.081433 C2.07297669,14.7999925 2.22089102,15.6552523 2.78324795,16.2176093 C3.34560487,16.7799662 4.20086472,16.9278805 4.91942424,16.5870538 L5.8797143,16.1310546 C6.15773817,15.9985293 6.47893219,15.9901739 6.76347033,16.1080647 C7.04800847,16.2259556 7.26917495,16.4590238 7.37200348,16.7493452 L7.72825289,17.7508019 C7.99534575,18.4999091 8.70470105,19.0000855 9.49999993,19.0000855 C10.2952988,19.0000855 11.0046541,18.4999091 11.271747,17.7508019 L11.6279964,16.7485535 C11.7311973,16.4585347 11.9524503,16.2258233 12.2368935,16.1081227 C12.5213367,15.9904221 12.8423321,15.9987547 13.1202856,16.1310546 L14.0805756,16.5870538 C14.7991351,16.9278805 15.654395,16.7799662 16.2167519,16.2176093 C16.7791089,15.6552523 16.9270232,14.7999925 16.5861965,14.081433 L16.1301972,13.1211429 C15.9978974,12.8431894 15.9895647,12.5221941 16.1072654,12.2377509 C16.224966,11.9533077 16.4576773,11.7320547 16.7476962,11.6288537 L17.7499445,11.2718127 C18.4992448,11.0051192 18.9996844,10.2958081 18.9996844,9.50046145 C18.9996844,8.70511482 18.4992448,7.9958037 17.7499445,7.72911024 Z M9.49999993,13.2881843 C7.97302464,13.2660325 6.59924454,12.3553348 5.98421413,10.9575215 C5.18242182,9.01602552 6.10311347,6.79184698 8.04254403,5.98507148 C9.98395847,5.2086645 12.1903343,6.12198677 13.0149941,8.04340138 C13.8167864,9.98489738 12.8960947,12.2090759 10.9566642,13.0158514 C10.4949777,13.205747 9.99910848,13.298453 9.49999993,13.2881843 Z" id="Shape" fill="#425563" fill-rule="nonzero"></path>
    </g>
</svg>