<svg xmlns="http://www.w3.org/2000/svg" xmlns:xlink="http://www.w3.org/1999/xlink" width="199" height="110" viewBox="0 0 199 110">
    <defs>
        <path id="a" d="M.069.021h18.184v22H.069z"/>
    </defs>
    <g fill="none" fill-rule="evenodd">
        <g fill="#FFF" fill-rule="nonzero">
            <path d="M99.228 75.62c-.84 0-1.52-.677-1.52-1.512v-8.3c0-.835.68-1.511 1.52-1.511s1.52.676 1.52 1.51v8.301c0 .835-.68 1.511-1.52 1.511M109.062 74.324a1.52 1.52 0 0 1-1.862-1.069l-2.16-8.017a1.51 1.51 0 0 1 1.074-1.85 1.52 1.52 0 0 1 1.861 1.067l2.161 8.018a1.51 1.51 0 0 1-1.074 1.85M118.186 70.548a1.525 1.525 0 0 1-2.076-.553l-4.175-7.189a1.506 1.506 0 0 1 .557-2.064 1.525 1.525 0 0 1 2.076.553l4.174 7.189c.42.723.17 1.647-.556 2.064M126.067 64.53c-.593.59-1.556.59-2.15 0l-5.903-5.869a1.505 1.505 0 0 1 0-2.137 1.526 1.526 0 0 1 2.15 0l5.903 5.87c.594.59.594 1.546 0 2.136M132.135 56.736c-.42.722-1.35.97-2.076.553l-7.23-4.15a1.506 1.506 0 0 1-.557-2.064c.42-.723 1.35-.97 2.076-.554l7.23 4.15c.728.418.977 1.342.557 2.065M135.903 47.635a1.52 1.52 0 0 1-1.861 1.068l-8.065-2.148a1.51 1.51 0 0 1-1.074-1.85 1.52 1.52 0 0 1 1.861-1.069l8.065 2.148a1.51 1.51 0 0 1 1.074 1.85M137.22 37.847c0 .835-.68 1.511-1.52 1.511h-8.349c-.839 0-1.52-.676-1.52-1.51 0-.835.681-1.512 1.52-1.512h8.35c.839 0 1.52.677 1.52 1.511M61.235 37.848c0-.835.68-1.511 1.52-1.511h8.35c.839 0 1.52.676 1.52 1.51 0 .835-.681 1.511-1.52 1.511h-8.35c-.84 0-1.52-.676-1.52-1.51M62.538 47.624a1.51 1.51 0 0 1 1.075-1.85l8.065-2.149a1.52 1.52 0 0 1 1.86 1.069 1.51 1.51 0 0 1-1.074 1.85L64.4 48.692a1.52 1.52 0 0 1-1.862-1.068M66.336 56.695a1.506 1.506 0 0 1 .557-2.064l7.23-4.15a1.525 1.525 0 0 1 2.076.553c.42.723.17 1.647-.556 2.064l-7.23 4.15a1.524 1.524 0 0 1-2.077-.553M99.228.076c.84 0 1.52.676 1.52 1.51v8.301c0 .834-.68 1.51-1.52 1.51s-1.52-.676-1.52-1.51v-8.3c0-.835.68-1.511 1.52-1.511M72.389 11.164a1.526 1.526 0 0 1 2.149 0l5.904 5.87c.593.59.593 1.546 0 2.136-.594.59-1.556.59-2.15 0L72.39 13.3a1.505 1.505 0 0 1 0-2.136M66.32 18.959c.42-.723 1.35-.97 2.077-.553l7.23 4.15c.727.417.976 1.341.557 2.064-.42.723-1.35.97-2.076.553l-7.231-4.15a1.506 1.506 0 0 1-.556-2.064M62.553 28.06a1.52 1.52 0 0 1 1.86-1.069l8.065 2.149a1.51 1.51 0 0 1 1.075 1.85 1.52 1.52 0 0 1-1.861 1.069l-8.065-2.149a1.51 1.51 0 0 1-1.074-1.85M135.917 28.07a1.51 1.51 0 0 1-1.074 1.85l-8.065 2.15A1.52 1.52 0 0 1 124.917 31a1.51 1.51 0 0 1 1.074-1.85l8.065-2.149a1.52 1.52 0 0 1 1.861 1.069M132.12 19c.419.722.17 1.646-.557 2.063l-7.23 4.15a1.525 1.525 0 0 1-2.076-.553 1.506 1.506 0 0 1 .556-2.063l7.23-4.15a1.524 1.524 0 0 1 2.076.552M126.067 11.164c.593.59.593 1.547 0 2.137l-5.904 5.869c-.593.59-1.556.59-2.15 0a1.505 1.505 0 0 1 0-2.137l5.905-5.87a1.526 1.526 0 0 1 2.149 0M118.227 5.131c.726.418.976 1.342.556 2.064l-4.175 7.189c-.42.722-1.349.97-2.076.553a1.506 1.506 0 0 1-.556-2.064l4.175-7.189c.42-.722 1.349-.97 2.076-.553M109.072 1.385a1.51 1.51 0 0 1 1.075 1.85l-2.16 8.018a1.52 1.52 0 0 1-1.862 1.068 1.51 1.51 0 0 1-1.075-1.85l2.161-8.018a1.52 1.52 0 0 1 1.861-1.068M89.394 1.37a1.52 1.52 0 0 1 1.861 1.07l2.161 8.017a1.51 1.51 0 0 1-1.074 1.85 1.52 1.52 0 0 1-1.862-1.068l-2.16-8.018a1.51 1.51 0 0 1 1.074-1.85M80.27 5.147a1.525 1.525 0 0 1 2.076.553l4.174 7.188c.42.723.171 1.647-.556 2.064a1.525 1.525 0 0 1-2.076-.553l-4.174-7.188a1.506 1.506 0 0 1 .556-2.064M72.389 64.53a1.505 1.505 0 0 1 0-2.136l5.904-5.87a1.526 1.526 0 0 1 2.149 0c.593.59.593 1.547 0 2.137l-5.904 5.87c-.593.59-1.556.59-2.15 0M80.23 70.563a1.506 1.506 0 0 1-.557-2.064l4.175-7.188a1.525 1.525 0 0 1 2.075-.553c.727.417.976 1.341.557 2.064l-4.175 7.188c-.42.723-1.349.97-2.076.553M89.383 74.31a1.51 1.51 0 0 1-1.074-1.85l2.16-8.019a1.52 1.52 0 0 1 1.862-1.068 1.51 1.51 0 0 1 1.074 1.85l-2.16 8.018a1.52 1.52 0 0 1-1.862 1.069"/>
            <g fill-opacity=".5">
                <path d="M99.228 59.775c-.84 0-1.52-.676-1.52-1.51v-4.533c0-.835.68-1.511 1.52-1.511s1.52.676 1.52 1.51v4.533c0 .835-.68 1.511-1.52 1.511M113.667 37.817c0-.835.68-1.511 1.52-1.511h4.559c.84 0 1.52.676 1.52 1.51 0 .835-.68 1.511-1.52 1.511h-4.56c-.839 0-1.519-.676-1.519-1.51M111.722 45.019c.42-.723 1.349-.97 2.076-.553l3.948 2.266c.727.417.976 1.341.556 2.064-.42.722-1.349.97-2.076.553l-3.948-2.267a1.506 1.506 0 0 1-.556-2.063M106.428 50.302a1.525 1.525 0 0 1 2.076.553l2.28 3.925c.42.723.17 1.647-.556 2.064a1.525 1.525 0 0 1-2.076-.553l-2.28-3.925a1.506 1.506 0 0 1 .556-2.064M99.215 15.934c.839 0 1.52.677 1.52 1.511v4.533c0 .834-.681 1.51-1.52 1.51-.84 0-1.52-.676-1.52-1.51v-4.533c0-.834.68-1.51 1.52-1.51M86.721 30.69c-.42.723-1.35.97-2.076.554l-3.948-2.267a1.506 1.506 0 0 1-.557-2.064c.42-.722 1.35-.97 2.076-.553l3.949 2.267c.727.417.976 1.34.556 2.063M92.014 25.407a1.525 1.525 0 0 1-2.076-.553l-2.28-3.925a1.506 1.506 0 0 1 .557-2.064 1.525 1.525 0 0 1 2.076.553l2.28 3.925c.42.723.17 1.647-.557 2.064M106.408 25.423a1.506 1.506 0 0 1-.557-2.064l2.28-3.926c.42-.722 1.35-.97 2.076-.553.727.418.976 1.342.556 2.064l-2.28 3.926c-.419.722-1.348.97-2.075.553M111.722 30.685a1.506 1.506 0 0 1 .556-2.064l3.948-2.266a1.525 1.525 0 0 1 2.076.553c.42.722.17 1.646-.556 2.064l-3.948 2.266a1.524 1.524 0 0 1-2.076-.553M77.192 37.865c0-.834.68-1.51 1.52-1.51h4.56c.839 0 1.519.676 1.519 1.51 0 .835-.68 1.511-1.52 1.511h-4.559c-.84 0-1.52-.676-1.52-1.51M92.035 50.287c.727.417.976 1.34.556 2.063l-2.28 3.926c-.419.722-1.348.97-2.075.553a1.506 1.506 0 0 1-.556-2.064l2.28-3.925c.419-.723 1.348-.97 2.075-.553M86.721 45.024c.42.723.17 1.647-.556 2.064l-3.949 2.266a1.525 1.525 0 0 1-2.076-.553 1.506 1.506 0 0 1 .557-2.064l3.948-2.266a1.524 1.524 0 0 1 2.076.553"/>
            </g>
        </g>
        <path fill="#FFF" fill-rule="nonzero" d="M132.429 97.76c.005-1.5-.331-2.912-1.077-4.22-2.383-4.184-8.093-4.454-10.765-.51-1.821 2.689-1.823 6.776-.006 9.468 2.273 3.366 6.896 3.794 9.726.882 1.517-1.561 2.106-3.488 2.122-5.62m4.101.03c-.058 3.453-1.213 6.438-3.854 8.76-1.646 1.447-3.583 2.24-5.776 2.458-6.179.614-10.918-3.804-11.648-9.484-.423-3.297.217-6.348 2.266-9.012 1.857-2.414 4.343-3.74 7.406-3.994 5.875-.485 10.337 3.578 11.358 8.757.163.83.258 1.665.248 2.514"/>
        <g transform="translate(180.08 86.75)">
            <mask id="b" fill="#fff">
                <use xlink:href="#a"/>
            </mask>
            <path fill="#FFF" fill-rule="nonzero" d="M.07 2.235C.041.708 1.08.005 2.294.022 5.14.06 7.986.067 10.831.025c3.41-.05 6.022 2.603 6.435 5.653.355 2.621-.631 4.673-2.653 6.297-.157.127-.382.205-.073.433 1.342.99 1.88 2.382 1.99 3.99.033.473.109.944.17 1.416.057.454.265.81.645 1.088.508.372.912.822.908 1.513-.005.85-.598 1.499-1.45 1.587-1.237.128-2.18-.38-2.91-1.33-.687-.896-.948-1.948-1.059-3.044-.044-.432-.055-.868-.073-1.303-.047-1.201-.785-2.043-1.981-2.245a5.89 5.89 0 0 0-1.02-.085c-1.163.007-2.71-.005-3.873.008-.264.003-.353-.065-.348-.338.018-.858.02-1.716 0-2.573-.007-.283.096-.34.352-.338 1.436.01 3.258-.019 4.694.014.712.016 1.228-.257 1.66-.789 1.087-1.332 1.318-3.552.501-5-.5-.887-1.214-1.372-2.29-1.352-1.997.038-3.995.021-5.992.002-.374-.004-.448.11-.447.46.01 5.214.008 10.427.007 15.64 0 .204-.003.41-.03.611-.186 1.4-1.28 2.024-2.596 1.485-.918-.376-1.313-.958-1.313-1.949v-8.902c0-2.913.036-5.827-.016-8.74z" mask="url(#b)"/>
        </g>
        <path fill="#FFF" fill-rule="nonzero" d="M103.552 109.07c-2.032-.06-4.038-.38-5.826-1.527-.576-.37-1.14-.76-1.591-1.278-.993-1.14-.525-2.78.883-3.111.57-.134 1.08.01 1.535.372.86.684 1.764 1.305 2.836 1.597 1.671.454 3.342.527 4.97-.205.223-.1.434-.23.64-.362 1.683-1.072 1.25-3.066.042-3.902-.909-.63-1.949-.905-3.006-1.131-1.08-.231-2.186-.334-3.248-.659-1.409-.431-2.686-1.067-3.646-2.227-1.71-2.067-1.96-6.52 1.505-8.762 1.17-.757 2.463-1.175 3.837-1.322 2.264-.243 4.44.09 6.487 1.12.686.345 1.336.752 1.866 1.312s.716 1.235.42 1.96c-.28.69-.807 1.117-1.588 1.168-.372.024-.688-.105-.992-.313-1.703-1.165-3.558-1.84-5.656-1.674-.983.077-1.92.309-2.66 1.02a2.287 2.287 0 0 0 .293 3.549c.982.664 2.12.922 3.26 1.144 1.57.305 3.14.6 4.615 1.244 2.21.962 3.257 2.656 3.363 5.048.145 3.285-2.059 5.38-4.482 6.288-1.231.46-2.503.662-3.857.65M166.895 92.876c-.524 1.235-1.017 2.398-1.513 3.56-1.59 3.728-3.18 7.457-4.776 11.183-.423.99-1.176 1.433-2.083 1.257-.953-.186-1.468-1.01-1.22-2 .158-.635.467-1.218.718-1.819 2.369-5.673 4.744-11.344 7.12-17.015.574-1.372 1.893-1.814 3.025-1.025.351.246.558.591.718.972l4.706 11.169 2.937 6.954c.385.91.27 1.726-.333 2.298-.88.835-2.2.61-2.785-.523-.41-.797-.736-1.637-1.097-2.459-.181-.41-.373-.818-.525-1.24-.1-.275-.25-.362-.542-.36-2.148.013-4.68.007-6.829.007-.452 0-.454-.003-.28-.405.413-.947.843-1.888 1.232-2.845.127-.311.296-.39.612-.386 1.108.019 2.602.005 3.71.01.235 0 .374-.023.246-.318-1.006-2.306-2.002-4.616-3.04-7.015M140.551 97.75c0-2.994.019-5.989-.007-8.983-.013-1.476 1.392-2.24 2.562-1.897.811.238 1.338.948 1.383 1.87.007.135.002.272.002.408 0 5.145.006 10.29-.01 15.434-.002.428.122.507.522.504 2.543-.018 5.087-.013 7.63-.007.916.002 1.623.456 1.882 1.182.425 1.187-.343 2.371-1.608 2.479-.136.011-.273.01-.41.01-3.268 0-6.537-.026-9.805.014-1.208.014-2.177-.779-2.155-2.154.046-2.952.014-5.907.014-8.86M68.644 105.331v-17.26c0-.164-.005-.328.007-.49a.859.859 0 0 1 .878-.795c.459.005.81.32.854.773.012.122.008.245.008.367V107.695c-.011.552-.214.86-.664 1.007-.426.138-.88-.023-1.185-.43-1.248-1.67-2.495-3.343-3.742-5.015l-9.437-12.653c-.048-.064-.103-.123-.232-.277v.515c0 5.609-.001 11.218.002 16.827 0 .323-.015.624-.293.85-.279.229-.578.3-.916.164a.803.803 0 0 1-.537-.75c-.004-.082-.003-.163-.003-.245 0-6.59.002-13.18-.004-19.769 0-.436.066-.819.497-1.034.448-.224.92-.083 1.282.4.893 1.187 1.776 2.382 2.664 3.573l10.583 14.196c.053.072.117.138.238.277M7.902 109.064c-2.942.055-5.361-1.107-7.403-3.144-.455-.454-.45-1.012-.003-1.44.415-.398.935-.391 1.374.077 1.252 1.337 2.75 2.227 4.574 2.521 1.626.262 3.21.172 4.72-.575 2.692-1.335 2.722-4.706.387-6.269-1.139-.762-2.419-1.193-3.7-1.62-1.335-.443-2.686-.84-3.915-1.547-2.057-1.182-3.058-2.938-2.87-5.312.17-2.154 1.365-3.651 3.292-4.465 3.227-1.362 6.37-1.124 9.31.87a3.91 3.91 0 0 1 1.141 1.216c.278.458.184.886-.249 1.218-.395.303-.87.279-1.214-.096-1.964-2.133-5.313-2.695-7.906-1.68-1.988.78-2.865 2.54-2.253 4.5.23.736.713 1.276 1.348 1.692 1.292.849 2.734 1.354 4.198 1.808 1.265.393 2.533.79 3.682 1.464 2.169 1.271 3 3.132 2.78 5.486-.252 2.683-2.036 4.09-4.427 4.895-.926.311-1.893.408-2.866.4M44.77 97.78v-9.8c0-.652.196-.978.669-1.133.633-.207 1.24.166 1.329.824.02.147.012.299.012.448 0 6.425 0 12.85.002 19.274 0 .218.003.435-.066.646-.156.473-.575.75-1.072.706-.487-.043-.803-.36-.864-.88-.017-.148-.01-.299-.01-.448V97.78M90.052 106.892c-.122-.01-.246-.004-.369-.004-3.242 0-6.484-.005-9.727.007-.342.002-.463-.06-.462-.438.006-2.694 0-5.389 0-8.083 1.31-.01 3.912-.003 4.93-.003 1.122 0 2.242.006 3.363-.002.607-.004.996-.369.996-.904 0-.546-.38-.95-.96-.953-2.141-.01-5.977-.003-8.329-.008 0-2.482.006-4.964 0-7.446 0-.353.11-.418.439-.417 3.256.012 6.512.007 9.767.007.151 0 .303.009.452-.01.606-.075.953-.61.777-1.187-.14-.458-.475-.667-1.09-.667H78.717c-.9 0-1.193.298-1.193 1.208v9.761c0 3.308-.002 6.617 0 9.925.001.695.322 1.067.953 1.068 3.845.007 7.688.006 11.533.001.578 0 .965-.374.97-.892.005-.5-.394-.916-.928-.963M22.891 87.923c0-.615-.296-1.015-.807-1.12-.705-.142-1.2.353-1.2 1.214v19.482c0 .162.01.327.04.487.083.457.417.74.879.761.652.03 1.088-.441 1.088-1.197V87.923zM37.665 87.672c-.058-.538-.423-.875-.95-.886a.996.996 0 0 0-1.016.872c-.024.188-.03.38-.03.57-.002 2.654-.004 5.31.003 7.964.001.278-.039.413-.372.413-3.396-.01-7.178-.007-10.573-.002a.263.263 0 0 0-.264.262v1.25c0 .177.144.32.32.32 3.341.01 7.067.01 10.408-.004.417-.002.487.135.485.51-.015 2.805-.01 5.61-.007 8.414 0 .17.003.343.024.511.068.533.559.937 1.095.878.544-.06.884-.508.884-1.181V97.76v-9.68c0-.136.007-.273-.007-.408"/>
    </g>
</svg>
